<svg xmlns="http://www.w3.org/2000/svg" width="264" height="274" viewBox="0 0 264 274">
  <defs>
    <linearGradient id="grad1" x1="0%" y1="0%" x2="100%" y2="0%">
      <stop offset="0%" style="stop-color:rgb(131,207,212);stop-opacity:1" />
      <stop offset="100%" style="stop-color:rgb(68,182,194);stop-opacity:1" />\n    </linearGradient>
    </defs>
  <g stroke-width="2" stroke="url(#grad1)">
    <circle cx="132" cy="137" r="130" fill="none"/>
  </g>
  <g fill="#94C11F">
    <path d="M132,95c11.05,0,21.552-4.326,29.391-12.02l-8.325-8.51c-6.164,6.018-14.368,9.531-23.066,9.531\n    c-18.248,0-33.078-14.703-33.078-32.822h-11.91c0,24.739,20.249,44.821,45.054,44.821"/>
    <path d="M132,179c-11.05,0-21.552,4.326-29.391,12.02l8.325,8.51c6.164-6.018,14.368-9.531,23.066-9.531\n    c18.248,0,33.078,14.703,33.078,32.822h11.91c0-24.739-20.249-44.821-45.054-44.821"/>
    <path d="M95,137c0-11.05,4.326-21.552,12.02-29.391l-8.51-8.325c-6.018,6.164-9.531,14.368-9.531,23.066\n    c0,18.248,14.703,33.078,32.822,33.078v11.91c-24.739,0-44.821-20.249-44.821-45.054"/>
    <path d="M179,137c0,11.05-4.326,21.552-12.02,29.391l8.51,8.325c6.018-6.164,9.531-14.368,9.531-23.066\n    c0-18.248-14.703-33.078-32.822-33.078v-11.91c24.739,0,44.821,20.249,44.821,45.054"/>
    <path d="M132,111.357c4.91,0,9.594-1.924,13.063-5.397l-5.878-5.995c-2.735,2.686-6.387,4.392-10.185,4.392\n    c-8.1,0-14.682-6.511-14.682-14.535h-6.657c0,11.01,8.994,19.935,20.422,19.935"/>
    <path d="M132,162.643c-4.91,0-9.594,1.924-13.063,5.397l5.878,5.995c2.735-2.686,6.387-4.392,10.185-4.392\n    c8.1,0,14.682,6.511,14.682,14.535h6.657c0-11.01-8.994-19.935-20.422-19.935"/>
    <path d="M111.357,137c0-4.91,1.924-9.594,5.397-13.063l-5.995-5.878c-2.686,2.735-4.392,6.387-4.392,10.185\n    c0,8.1,6.511,14.682,14.535,14.682v6.657c-11.01,0-19.935-8.994-19.935-20.422"/>
    <path d="M162.643,137c0,4.91-1.924,9.594-5.397,13.063l5.995,5.878c2.686-2.735,4.392-6.387,4.392-10.185\n    c0-8.1-6.511-14.682-14.535-14.682v-6.657c11.01,0,19.935,8.994,19.935,20.422"/>
  </g>
</svg>