<svg width="192px" height="178px" version="1.1" xmlns="http://www.w3.org/2000/svg" xmlns:xlink="http://www.w3.org/1999/xlink">
  <g transform="translate(0,-872.36218)">    
  	<path d="M 121.3,925.0
  	           C 121.3,925.0 97.0,948.7 97.0,948.7
               97.0,948.7 77.2,949.9 77.2,949.9
               77.2,949.9 71.4,939.2 71.4,939.2
               71.4,939.2 96.3,916.1 96.3,916.1
               96.3,916.1 89.1,916.0 89.1,916.0
               67.0,915.8 48.5,934.8 48.5,957.4
               48.5,980.0 67.4,999.4 90.0,999.4
               112.5,999.4 127.4,978.1 127.4,955.0
               127.4,952.3 126.1,950.2 121.3,925.0 Z
               M 139.6,1039.2
               C 139.6,1039.2 121.0,1020.5 121.0,1020.5
               121.0,1020.5 131.9,1014.6 131.9,1014.6
               131.9,1014.6 150.5,1033.4 150.5,1033.4
               150.5,1033.4 150.6,1026.2 150.6,1026.2
               150.8,1004.0 132.0,985.5 109.6,985.5
               87.1,985.5 67.8,1004.4 67.8,1027.0
               67.8,1049.5 89.0,1064.5 112.2,1064.5
               114.8,1064.5 116.9,1063.1 142.5,1058.5
               142.5,1058.5 139.6,1039.2 139.6,1039.2 Z
               M 90.0,1012.8
               C 90.0,1012.8 72.4,1031.4 72.4,1031.4
               72.4,1031.4 61.5,1025.6 61.5,1025.6
               61.5,1025.6 42.8,1044.4 42.8,1044.4
               42.8,1044.4 42.9,1037.1 42.9,1037.1
               43.0,1014.9 61.9,996.4 84.4,996.4
               106.8,996.4 125.9,1015.3 125.9,1037.9
               125.9,1060.4 104.8,1075.4 81.5,1075.4
               78.9,1075.4 76.8,1074.0 51.4,1069.3
               51.4,1069.3 54.2,1050.1 54.2,1050.1
               54.2,1050.1 54.3,1050.1 54.3,1050.1
               54.3,1050.1 90.0,1012.8 90.0,1012.8 Z" 
               fill="#4CAF50"/>
  </g>
</svg>